HIERARCHY
ROOT Hips
{
    OFFSET   0.000000   0.000000   0.000000
    CHANNELS 6 Xposition Yposition Zposition Zrotation Xrotation Yrotation
    JOINT Chest
    {
        OFFSET   0.000000   8.007230   0.000000
        CHANNELS 3 Zrotation Xrotation Yrotation
        JOINT Chest2
        {
            OFFSET   0.000000  22.077100   0.000000
            CHANNELS 3 Zrotation Xrotation Yrotation
            JOINT Neck
            {
                OFFSET   0.000000  23.254800   0.000000
                CHANNELS 3 Zrotation Xrotation Yrotation
                JOINT Head
                {
                    OFFSET   0.000010  14.370000   1.956600
                    CHANNELS 3 Zrotation Xrotation Yrotation
                    End Site
                    {
                        OFFSET   0.000000  19.566000   0.000000
                    }
                }
            }
            JOINT LeftCollar
            {
                OFFSET   3.911900  19.017000  -0.467062
                CHANNELS 3 Zrotation Xrotation Yrotation
                JOINT LeftShoulder
                {
                    OFFSET  10.383700   0.000000   0.000000
                    CHANNELS 3 Zrotation Xrotation Yrotation
                    JOINT LeftElbow
                    {
                        OFFSET  26.662100   0.001193   0.000835
                        CHANNELS 3 Zrotation Xrotation Yrotation
                        JOINT LeftWrist
                        {
                            OFFSET  28.869000  -0.000058  -0.000075
                            CHANNELS 3 Zrotation Xrotation Yrotation
                            JOINT LeftFinger0
                            {
                                OFFSET   2.044660  -2.323460   3.252850
                                CHANNELS 3 Zrotation Xrotation Yrotation
                                JOINT LeftFinger01
                                {
                                    OFFSET   3.088130   0.000000   0.000000
                                    CHANNELS 3 Zrotation Xrotation Yrotation
                                    JOINT LeftFinger02
                                    {
                                        OFFSET   2.639450   0.000000   0.000000
                                        CHANNELS 3 Zrotation Xrotation Yrotation
                                        End Site
                                        {
                                            OFFSET   2.582190   0.000000   0.000000
                                        }
                                    }
                                }
                            }
                            JOINT LeftFinger1
                            {
                                OFFSET   8.364480   0.000000   3.252850
                                CHANNELS 3 Zrotation Xrotation Yrotation
                                JOINT LeftFinger11
                                {
                                    OFFSET   4.646920   0.000000   0.000000
                                    CHANNELS 3 Zrotation Xrotation Yrotation
                                    JOINT LeftFinger12
                                    {
                                        OFFSET   2.323460   0.000000   0.000000
                                        CHANNELS 3 Zrotation Xrotation Yrotation
                                        End Site
                                        {
                                            OFFSET   2.273050   0.000000   0.000000
                                        }
                                    }
                                }
                            }
                            JOINT LeftFinger2
                            {
                                OFFSET   8.364490   0.000016   1.078090
                                CHANNELS 3 Zrotation Xrotation Yrotation
                                JOINT LeftFinger21
                                {
                                    OFFSET   5.111620   0.000000   0.000000
                                    CHANNELS 3 Zrotation Xrotation Yrotation
                                    JOINT LeftFinger22
                                    {
                                        OFFSET   2.788150   0.000012   0.000000
                                        CHANNELS 3 Zrotation Xrotation Yrotation
                                        End Site
                                        {
                                            OFFSET   2.727660   0.000000   0.000000
                                        }
                                    }
                                }
                            }
                            JOINT LeftFinger3
                            {
                                OFFSET   7.899780   0.000014  -1.078090
                                CHANNELS 3 Zrotation Xrotation Yrotation
                                JOINT LeftFinger31
                                {
                                    OFFSET   4.646930   0.000000   0.000000
                                    CHANNELS 3 Zrotation Xrotation Yrotation
                                    JOINT LeftFinger32
                                    {
                                        OFFSET   2.323470   0.000000   0.000000
                                        CHANNELS 3 Zrotation Xrotation Yrotation
                                        End Site
                                        {
                                            OFFSET   2.273050   0.000000   0.000000
                                        }
                                    }
                                }
                            }
                            JOINT LeftFinger4
                            {
                                OFFSET   7.435090   0.000000  -3.252850
                                CHANNELS 3 Zrotation Xrotation Yrotation
                                JOINT LeftFinger41
                                {
                                    OFFSET   3.717550   0.000000   0.000000
                                    CHANNELS 3 Zrotation Xrotation Yrotation
                                    JOINT LeftFinger42
                                    {
                                        OFFSET   1.858770   0.000000   0.000000
                                        CHANNELS 3 Zrotation Xrotation Yrotation
                                        End Site
                                        {
                                            OFFSET   1.818440   0.000000   0.000000
                                        }
                                    }
                                }
                            }
                        }
                    }
                }
            }
            JOINT RightCollar
            {
                OFFSET  -3.911900  19.017000  -0.467063
                CHANNELS 3 Zrotation Xrotation Yrotation
                JOINT RightShoulder
                {
                    OFFSET -10.383700   0.000023   0.000000
                    CHANNELS 3 Zrotation Xrotation Yrotation
                    JOINT RightElbow
                    {
                        OFFSET -26.662100   0.001246   0.001011
                        CHANNELS 3 Zrotation Xrotation Yrotation
                        JOINT RightWrist
                        {
                            OFFSET -28.869000  -0.000026  -0.000078
                            CHANNELS 3 Zrotation Xrotation Yrotation
                            JOINT RightFinger0
                            {
                                OFFSET  -2.044660  -2.323490   3.252850
                                CHANNELS 3 Zrotation Xrotation Yrotation
                                JOINT RightFinger01
                                {
                                    OFFSET  -3.088130   0.000000   0.000000
                                    CHANNELS 3 Zrotation Xrotation Yrotation
                                    JOINT RightFinger02
                                    {
                                        OFFSET  -2.639460   0.000000   0.000000
                                        CHANNELS 3 Zrotation Xrotation Yrotation
                                        End Site
                                        {
                                            OFFSET  -2.582190   0.000000   0.000000
                                        }
                                    }
                                }
                            }
                            JOINT RightFinger1
                            {
                                OFFSET  -8.364480   0.000000   3.252850
                                CHANNELS 3 Zrotation Xrotation Yrotation
                                JOINT RightFinger11
                                {
                                    OFFSET  -4.646920   0.000000   0.000000
                                    CHANNELS 3 Zrotation Xrotation Yrotation
                                    JOINT RightFinger12
                                    {
                                        OFFSET  -2.323470   0.000000   0.000000
                                        CHANNELS 3 Zrotation Xrotation Yrotation
                                        End Site
                                        {
                                            OFFSET  -2.273050   0.000000   0.000000
                                        }
                                    }
                                }
                            }
                            JOINT RightFinger2
                            {
                                OFFSET  -8.364480   0.000000   1.078090
                                CHANNELS 3 Zrotation Xrotation Yrotation
                                JOINT RightFinger21
                                {
                                    OFFSET  -5.111620   0.000000   0.000000
                                    CHANNELS 3 Zrotation Xrotation Yrotation
                                    JOINT RightFinger22
                                    {
                                        OFFSET  -2.788160   0.000000   0.000000
                                        CHANNELS 3 Zrotation Xrotation Yrotation
                                        End Site
                                        {
                                            OFFSET  -2.727660   0.000000   0.000000
                                        }
                                    }
                                }
                            }
                            JOINT RightFinger3
                            {
                                OFFSET  -7.899780   0.000000  -1.078090
                                CHANNELS 3 Zrotation Xrotation Yrotation
                                JOINT RightFinger31
                                {
                                    OFFSET  -4.646930   0.000000   0.000000
                                    CHANNELS 3 Zrotation Xrotation Yrotation
                                    JOINT RightFinger32
                                    {
                                        OFFSET  -2.323470   0.000000   0.000000
                                        CHANNELS 3 Zrotation Xrotation Yrotation
                                        End Site
                                        {
                                            OFFSET  -2.273050   0.000000   0.000000
                                        }
                                    }
                                }
                            }
                            JOINT RightFinger4
                            {
                                OFFSET  -7.435090   0.000000  -3.252850
                                CHANNELS 3 Zrotation Xrotation Yrotation
                                JOINT RightFinger41
                                {
                                    OFFSET  -3.717550   0.000000   0.000000
                                    CHANNELS 3 Zrotation Xrotation Yrotation
                                    JOINT RightFinger42
                                    {
                                        OFFSET  -1.858760   0.000000   0.000000
                                        CHANNELS 3 Zrotation Xrotation Yrotation
                                        End Site
                                        {
                                            OFFSET  -1.818440   0.000000   0.000000
                                        }
                                    }
                                }
                            }
                        }
                    }
                }
            }
        }
    }
    JOINT LeftHip
    {
        OFFSET   9.783010   0.000000   0.000000
        CHANNELS 3 Zrotation Xrotation Yrotation
        JOINT LeftKnee
        {
            OFFSET   0.000073 -41.789100   0.001749
            CHANNELS 3 Zrotation Xrotation Yrotation
            JOINT LeftAnkle
            {
                OFFSET   0.000111 -41.133200  -0.000179
                CHANNELS 3 Zrotation Xrotation Yrotation
                JOINT LeftToe
                {
                    OFFSET   0.000000  -6.358960  14.674500
                    CHANNELS 3 Zrotation Xrotation Yrotation
                    End Site
                    {
                        OFFSET   0.000000   0.000000   3.913200
                    }
                }
            }
        }
    }
    JOINT RightHip
    {
        OFFSET  -9.783010   0.000000   0.000000
        CHANNELS 3 Zrotation Xrotation Yrotation
        JOINT RightKnee
        {
            OFFSET   0.000424 -41.789200   0.005205
            CHANNELS 3 Zrotation Xrotation Yrotation
            JOINT RightAnkle
            {
                OFFSET   0.000000 -41.133200  -0.000155
                CHANNELS 3 Zrotation Xrotation Yrotation
                JOINT RightToe
                {
                    OFFSET   0.000000  -6.358960  14.674500
                    CHANNELS 3 Zrotation Xrotation Yrotation
                    End Site
                    {
                        OFFSET   0.000000   0.000000   3.913200
                    }
                }
            }
        }
    }
}
MOTION
Frames: 4
Frame Time:   0.016667
  0.017525  89.562600   1.960900  -2.113610  -4.770930  -1.721950   0.512172   2.778910   0.569670   0.998383   5.562650   1.116390  -0.529266  -0.066428  -0.003354  -0.867308  -0.134816   6.715320  -5.158020   0.605983   3.438390 -75.032000  13.554100   1.029630  -2.624360  -7.206810 -13.764500   9.588720  -4.009690   2.735410  36.691600  27.161000 -52.058100 -32.832400   0.000000   0.000135 -11.416200  -0.007757  -0.002069 -26.355500   5.940540 -11.796100 -22.068900  -0.002598  -0.004801 -15.448300   0.003286  -0.004092 -27.622400   0.954809  -1.807510 -29.909600  -0.002627  -0.004156 -19.919800  -0.004472  -0.001954 -28.078900   0.968999  -1.800050 -32.589600  -0.004712  -0.005242 -21.700900  -0.008680  -0.004381 -31.361000   1.008530  -1.645230 -47.063100  -0.011564  -0.004106 -31.344300   0.002893  -0.004096   7.801940   2.151910   4.996940  73.554600   4.856530  -3.963730   0.276670  -7.406200  10.339200 -12.917900  -4.171980   1.672810 -38.023500  31.249500  62.074600  31.950200   0.011102  -0.006878  10.977400   0.004945   0.011487  30.609200   9.773220  16.001000  26.181900   0.004767  -0.001109  18.327400   0.001281  -0.003241  28.434200   4.015010   7.369900  38.779400  -0.003801  -0.001868  25.840900   0.000125   0.010977  27.693900   2.723880   5.171730  30.932300  -0.001507   0.005576  20.600900   0.000371   0.003741  33.863500   0.502064   0.739553  50.800100  -0.005428   0.008007  33.832900   0.006815   0.002498   1.547030   7.508240   4.295070   0.867191   0.191949   4.844950  -1.252000  -3.715760   0.907174  -0.000000   0.000000  -0.000000   2.028490   6.721850   1.773230  -0.044026   1.262830  -7.313650  -1.624550  -4.088500  -1.502960   0.000000   0.000000   0.000000
  0.017646  89.562600   1.960930  -2.113820  -4.780100  -1.721970   0.512185   2.783020   0.569667   0.998377   5.570890   1.116380  -0.529448  -0.065073  -0.003367  -0.867683  -0.132019   6.697810  -5.157930   0.606120   3.427910 -75.027400  13.558000   1.029670  -2.624860  -7.206400 -13.769600   9.590030  -4.009690   2.734940  36.695000  27.167600 -52.054700 -32.832400   0.000000   0.000146 -11.416200  -0.007747  -0.002069 -26.355000   5.940420 -11.795700 -22.068500  -0.002592  -0.004797 -15.448000   0.003283  -0.004087 -27.622500   0.951154  -1.807010 -29.910800  -0.002626  -0.004156 -19.920600  -0.004475  -0.001952 -28.079000   0.965306  -1.799560 -32.592300  -0.004708  -0.005238 -21.700500  -0.008683  -0.004377 -31.361200   1.008520  -1.645180 -47.063100  -0.011559  -0.004102 -31.344400   0.002888  -0.004089   7.803290   2.147660   4.996920  73.555200   4.869680  -3.963750   0.277291  -7.408450  10.341100 -12.914600  -4.171480   1.672880 -38.018700  31.249000  62.086700  31.949900   0.011092  -0.006846  10.977200   0.004941   0.011481  30.616200   9.773220  16.001000  26.181900   0.004772  -0.001112  18.327400   0.001281  -0.003241  28.434200   4.015010   7.369900  38.789800  -0.003803  -0.001870  25.840900   0.000129   0.010981  27.693800   2.723880   5.171600  30.943800  -0.001504   0.005569  20.608600   0.000366   0.003737  33.869600   0.502096   0.739477  50.809300  -0.005433   0.008002  33.839000   0.006808   0.002496   1.550560   7.508340   4.294980   0.866938   0.218459   4.844630  -1.254560  -3.730930   0.901978   0.000000   0.000000  -0.000000   2.032030   6.730930   1.773240  -0.043910   1.262740  -7.313650  -1.624610  -4.087960  -1.504020   0.000000   0.000000  -0.000000
  0.017766  89.562500   1.960960  -2.114230  -4.795770  -1.722010   0.512187   2.790780   0.569641   0.998316   5.586450   1.116240  -0.529702  -0.061750  -0.003386  -0.868540  -0.125167   6.676630  -5.157850   0.606258   3.417430 -75.020200  13.564900   1.029730  -2.625320  -7.204350 -13.777800   9.594320  -4.009700   2.734460  36.699300  27.177400 -52.049300 -32.832400  -0.000000   0.000163 -11.416200  -0.007738  -0.002068 -26.354900   5.939620 -11.793200 -22.068000  -0.002572  -0.004785 -15.447700   0.003279  -0.004075 -27.622800   0.944256  -1.803550 -29.912100  -0.002625  -0.004154 -19.921500  -0.004483  -0.001947 -28.079300   0.958331  -1.796110 -32.595300  -0.004697  -0.005226 -21.700000  -0.008689  -0.004366 -31.361500   1.008490  -1.645080 -47.063000  -0.011549  -0.004095 -31.344700   0.002873  -0.004071   7.806040   2.141380   4.996900  73.553800   4.890280  -3.963760   0.278644  -7.413080  10.345200 -12.905900  -4.167980   1.672950 -38.013800  31.248400  62.098900  31.949700   0.011081  -0.006814  10.977000   0.004927   0.011471  30.623300   9.773220  16.001000  26.181900   0.004783  -0.001114  18.327400   0.001281  -0.003241  28.434200   4.015010   7.369900  38.800200  -0.003805  -0.001876  25.840900   0.000134   0.010994  27.693700   2.723880   5.170690  30.955400  -0.001498   0.005551  20.616300   0.000354   0.003726  33.875700   0.502141   0.739316  50.818600  -0.005448   0.007990  33.845200   0.006789   0.002489   1.556920   7.509000   4.294890   0.866686   0.244970   4.844320  -1.257310  -3.746100   0.893884  -0.000000   0.000000   0.000000   2.037900   6.745050   1.773240  -0.043795   1.262650  -7.313650  -1.624730  -4.087420  -1.506510  -0.000000   0.000000   0.000000
  0.015726  89.562500   1.958030  -2.114490  -4.808950  -1.718670   0.512187   2.798590   0.569039   0.998283   5.602040   1.114950  -0.529813  -0.056687  -0.003401  -0.869610  -0.114708   6.672360  -5.161770   0.605513   3.417950 -75.015300  13.567800   1.024740  -2.624590  -7.197700 -13.785500   9.605420  -4.016090   2.737930  36.694900  27.183000 -52.044600 -32.840600   0.000000   0.000169 -11.420300  -0.007751  -0.002059 -26.361600   5.932220 -11.778400 -22.071000  -0.002539  -0.004760 -15.449700   0.003278  -0.004057 -27.623400   0.935812  -1.787770 -29.910200  -0.002625  -0.004154 -19.920100  -0.004496  -0.001939 -28.079800   0.949749  -1.780390 -32.595500  -0.004677  -0.005206 -21.703300  -0.008698  -0.004350 -31.361700   1.008450  -1.644990 -47.063100  -0.011533  -0.004086 -31.345000   0.002851  -0.004041   7.808720   2.138840   5.000910  73.547000   4.903360  -3.963650   0.284173  -7.418720  10.352400 -12.887900  -4.155480   1.672910 -38.019100  31.250800  62.089100  31.950500   0.011086  -0.006835  10.977000   0.004898   0.011468  30.617100   9.768420  15.997300  26.176000   0.004793  -0.001114  18.323300   0.001280  -0.003244  28.435100   4.011730   7.363740  38.787400  -0.003805  -0.001889  25.832400   0.000135   0.011016  27.693900   2.722710   5.165840  30.944200  -0.001488   0.005526  20.608900   0.000338   0.003707  33.868500   0.502160   0.739096  50.807700  -0.005473   0.007969  33.838000   0.006758   0.002479   1.561400   7.537470   4.295460   0.867085   0.204855   4.844720  -1.257480  -3.723950   0.888630   0.000000   0.000000   0.000000   2.042580   6.753480   1.773200  -0.043321   1.267640  -7.317270  -1.624710  -4.088310  -1.510060  -0.000000   0.000000   0.000000
